<?xml version="1.0" standalone="no"?>
<!DOCTYPE svg PUBLIC "-//W3C//DTD SVG 20010904//EN"
 "http://www.w3.org/TR/2001/REC-SVG-20010904/DTD/svg10.dtd">
<svg version="1.0" xmlns="http://www.w3.org/2000/svg"
 width="374.000000pt" height="137.000000pt" viewBox="0 0 374.000000 137.000000"
 preserveAspectRatio="xMidYMid meet">

<g transform="translate(0.000000,137.000000) scale(0.100000,-0.100000)"
fill="#000000" stroke="none">
<path d="M325 1200 c-8 -13 -6 -16 119 -189 l97 -135 -3 -55 c-1 -31 2 -63 7
-71 5 -8 91 -121 191 -251 100 -130 183 -242 184 -250 6 -39 -26 -68 -55 -51
-9 4 -95 127 -193 273 l-177 264 -44 7 c-24 4 -53 15 -63 25 -11 10 -66 82
-121 161 -93 132 -123 160 -134 127 -5 -17 210 -308 246 -332 19 -13 46 -23
60 -23 24 0 48 -31 209 -270 168 -248 185 -270 216 -275 19 -4 43 -2 55 4 28
16 54 68 47 96 -3 13 -92 134 -197 270 -187 241 -190 247 -184 284 9 54 -8 88
-122 248 -112 158 -122 169 -138 143z"/>
<path d="M927 1196 c-88 -32 -167 -110 -215 -213 -22 -47 -27 -76 -30 -150 -4
-89 -3 -93 17 -93 13 0 21 7 22 18 0 9 2 49 3 87 2 54 9 84 32 129 65 134 202
220 282 177 31 -17 44 -46 44 -105 1 -123 -116 -272 -240 -306 -52 -14 -95
-50 -83 -69 7 -11 18 -9 62 11 30 14 73 33 97 43 60 25 133 103 173 183 28 56
33 78 34 137 0 58 -4 76 -24 104 -25 35 -74 61 -113 61 -13 -1 -40 -7 -61 -14z"/>
<path d="M230 1124 c0 -8 43 -76 95 -150 88 -123 125 -158 125 -118 0 14 -97
162 -163 247 -30 38 -57 49 -57 21z"/>
<path d="M1330 680 c0 -216 2 -250 15 -250 13 0 15 34 15 250 0 216 -2 250
-15 250 -13 0 -15 -34 -15 -250z"/>
<path d="M1549 772 c-32 -29 -34 -34 -34 -95 0 -55 4 -69 23 -90 28 -30 63
-38 107 -26 39 11 57 30 46 48 -7 11 -15 11 -44 0 -32 -11 -39 -11 -57 6 -37
33 -21 145 20 145 14 0 40 -30 40 -46 0 -24 44 -13 48 12 5 33 -28 65 -74 71
-36 5 -46 1 -75 -25z"/>
<path d="M1742 683 l3 -118 65 0 c54 0 65 3 68 18 3 14 -4 17 -42 17 l-46 0 0
88 c0 87 -8 112 -37 112 -11 0 -13 -25 -11 -117z"/>
<path d="M2173 788 c-6 -7 -26 -61 -46 -120 l-36 -108 29 0 c22 0 29 5 32 23
2 18 10 23 44 25 37 3 42 0 48 -22 5 -19 13 -26 31 -26 14 0 25 6 25 12 0 20
-61 201 -73 216 -5 6 -17 12 -27 12 -10 0 -22 -6 -27 -12z m42 -105 c6 -31 5
-33 -20 -33 -22 0 -26 3 -20 18 3 9 9 30 12 46 7 32 16 21 28 -31z"/>
<path d="M2347 794 c-4 -4 -7 -58 -7 -121 l0 -113 26 0 27 0 -5 80 c-3 44 -2
78 0 75 3 -3 20 -38 37 -78 28 -66 34 -72 63 -75 l32 -3 0 120 c0 68 -4 121
-9 121 -5 0 -17 -7 -25 -16 -13 -12 -15 -30 -11 -87 l6 -72 -43 85 c-30 60
-49 86 -63 88 -12 2 -24 0 -28 -4z"/>
<path d="M2794 792 c-6 -4 -27 -58 -46 -119 l-36 -113 24 0 c17 0 28 8 34 25
8 20 16 25 45 25 28 0 38 -5 47 -25 7 -16 19 -25 35 -25 12 0 23 4 23 8 0 17
-63 208 -72 220 -12 13 -37 16 -54 4z m41 -109 c6 -31 5 -33 -20 -33 -20 0
-25 4 -21 18 3 9 8 30 12 46 8 32 17 22 29 -31z"/>
<path d="M2973 793 c-9 -3 -13 -37 -13 -119 l0 -114 65 0 c52 0 69 4 85 20 25
25 26 64 2 88 -16 15 -16 19 -3 43 13 24 13 29 -1 51 -21 31 -94 48 -135 31z
m87 -48 c16 -19 -3 -45 -31 -45 -14 0 -19 7 -19 30 0 23 5 30 19 30 10 0 24
-7 31 -15z m8 -114 c4 -25 -12 -41 -40 -41 -14 0 -18 8 -18 36 0 33 2 35 28
32 20 -2 28 -9 30 -27z"/>
<path d="M3172 683 l3 -118 65 0 c53 0 65 3 68 17 3 13 -6 17 -40 20 l-43 3
-3 90 c-3 87 -9 104 -40 105 -10 0 -12 -27 -10 -117z"/>
<path d="M1922 678 l3 -113 67 -3 c59 -3 68 0 78 18 10 19 8 20 -45 20 -54 0
-55 0 -55 30 0 28 2 30 40 30 33 0 40 3 40 20 0 17 -7 20 -40 20 -36 0 -40 3
-40 25 0 23 3 25 50 25 43 0 50 3 50 20 0 18 -7 20 -75 20 l-76 0 3 -112z"/>
<path d="M2550 770 c0 -16 7 -20 30 -20 l30 0 0 -95 0 -95 30 0 30 0 0 94 0
95 27 3 c17 2 29 10 31 21 3 15 -6 17 -87 17 -84 0 -91 -1 -91 -20z"/>
<path d="M3352 678 l3 -113 75 0 c62 0 75 3 78 17 3 14 -6 17 -50 20 -49 3
-53 5 -53 28 0 22 5 25 38 28 29 3 37 7 37 23 0 16 -7 19 -41 19 -36 0 -40 2
-37 23 3 19 10 22 51 25 39 3 47 6 47 23 0 17 -7 19 -75 19 l-76 0 3 -112z"/>
<path d="M478 493 c-14 -16 -57 -70 -97 -121 -59 -79 -71 -100 -71 -132 0 -30
6 -44 31 -64 63 -53 105 -29 193 109 49 77 66 109 58 117 -16 16 -31 1 -102
-107 -34 -51 -69 -96 -77 -99 -21 -9 -63 20 -63 43 0 10 41 72 90 137 50 65
89 122 87 128 -7 20 -23 16 -49 -11z"/>
</g>
</svg>
